<svg width="16" height="16" viewBox="0 0 16 16" fill="none" xmlns="http://www.w3.org/2000/svg">
<g id="done-all-outline" clip-path="url(#clip0_4700_12128)">
<g id="Layer 2">
<g id="done-all">
<path id="Vector" d="M11.08 4.14001C11.011 4.08537 10.9318 4.04494 10.8471 4.02105C10.7624 3.99716 10.6738 3.99029 10.5864 4.00083C10.499 4.01136 10.4146 4.0391 10.3379 4.08244C10.2613 4.12578 10.1941 4.18387 10.14 4.25334L5.47333 10.2533L3.18667 7.46668C3.13303 7.39528 3.0656 7.33539 2.98837 7.29055C2.91114 7.24571 2.82569 7.21685 2.73709 7.20568C2.64849 7.1945 2.55855 7.20124 2.47261 7.22549C2.38667 7.24974 2.30647 7.29101 2.23678 7.34685C2.16709 7.40269 2.10933 7.47196 2.06693 7.55055C2.02453 7.62914 1.99835 7.71545 1.98994 7.80435C1.98154 7.89326 1.99108 7.98294 2.018 8.06809C2.04493 8.15323 2.08868 8.2321 2.14667 8.30001L4.92667 11.7533C4.98941 11.8307 5.06869 11.893 5.15868 11.9357C5.24866 11.9784 5.34707 12.0003 5.44667 12C5.55239 12.0047 5.65771 11.9842 5.75393 11.9402C5.85015 11.8961 5.9345 11.8298 6 11.7467L11.22 5.08001C11.2732 5.00936 11.3118 4.92883 11.3336 4.8431C11.3554 4.75738 11.3599 4.66817 11.3469 4.58069C11.3339 4.4932 11.3036 4.40918 11.2577 4.33352C11.2119 4.25787 11.1515 4.19209 11.08 4.14001Z" fill="white"/>
<path id="Vector_2" d="M14.4133 4.14001C14.3443 4.08537 14.2652 4.04494 14.1804 4.02105C14.0957 3.99716 14.0071 3.99029 13.9197 4.00083C13.8323 4.01136 13.7479 4.0391 13.6713 4.08244C13.5947 4.12578 13.5274 4.18387 13.4733 4.25334L8.80666 10.2533L8.4 9.75334L7.56 10.8333L8.29333 11.7467C8.35608 11.824 8.43535 11.8863 8.52534 11.929C8.61533 11.9717 8.71373 11.9937 8.81333 11.9933C8.91347 11.9929 9.01221 11.9699 9.10224 11.926C9.19226 11.8822 9.27125 11.8186 9.33333 11.74L14.5533 5.07334C14.6055 5.0029 14.6433 4.92286 14.6645 4.8378C14.6857 4.75274 14.6899 4.66433 14.6769 4.57764C14.6639 4.49095 14.6339 4.40767 14.5887 4.33258C14.5435 4.25748 14.4839 4.19204 14.4133 4.14001Z" fill="white"/>
<path id="Vector_3" d="M5.80667 8.70667L6.66667 7.62667L6.53333 7.46667C6.4807 7.39376 6.41386 7.33224 6.33683 7.28583C6.2598 7.23941 6.17418 7.20907 6.08511 7.19661C5.99605 7.18416 5.90539 7.18985 5.81858 7.21334C5.73177 7.23684 5.65062 7.27766 5.58 7.33334C5.51152 7.38836 5.45458 7.45636 5.41246 7.53346C5.37035 7.61055 5.34388 7.6952 5.33459 7.78255C5.3253 7.86991 5.33336 7.95823 5.35831 8.04246C5.38327 8.12669 5.42462 8.20515 5.48 8.27334L5.80667 8.70667Z" fill="white"/>
</g>
</g>
</g>
<defs>
<clipPath id="clip0_4700_12128">
<rect width="16" height="16" fill="white"/>
</clipPath>
</defs>
</svg>
